<?xml version="1.0" encoding="utf-8"?>
<!-- Generator: Adobe Illustrator 22.0.1, SVG Export Plug-In . SVG Version: 6.00 Build 0)  -->
<svg version="1.1" id="Capa_1" xmlns="http://www.w3.org/2000/svg" xmlns:xlink="http://www.w3.org/1999/xlink" x="0px" y="0px"
	 viewBox="0 0 425.7 94" style="enable-background:new 0 0 425.7 94;" xml:space="preserve">
<style type="text/css">
	.st0{fill:#0081C6;}
	.st1{fill:#5B5B5F;}
	.st2{fill:none;stroke:#211915;stroke-width:0.18;}
</style>
<g>
	<g>
		<path class="st0" d="M269.5,11c1.1-0.2,2.8-0.3,4.6-0.3c2.4,0,4,0.4,5.1,1.3c0.9,0.8,1.4,1.9,1.4,3.3c0,2.1-1.5,3.6-3,4.2v0.1
			c1.2,0.4,1.9,1.6,2.3,3.2c0.5,2.1,1,4,1.3,4.6h-3.1c-0.2-0.5-0.6-1.9-1.1-3.9c-0.5-2.2-1.3-2.9-3-2.9h-1.5v6.8h-3L269.5,11
			L269.5,11z M272.5,18.3h1.8c2,0,3.3-1.1,3.3-2.7c0-1.8-1.3-2.7-3.3-2.7c-1,0-1.6,0.1-1.9,0.1v5.3H272.5z"/>
		<path class="st0" d="M285.1,22.2c0.1,2.2,1.8,3.1,3.7,3.1c1.4,0,2.4-0.2,3.3-0.5l0.4,2.1c-1,0.4-2.5,0.7-4.2,0.7
			c-3.9,0-6.2-2.4-6.2-6.1c0-3.3,2-6.5,5.9-6.5s5.2,3.2,5.2,5.9c0,0.6,0,1-0.1,1.3H285.1z M290.4,20.1c0-1.1-0.5-2.9-2.5-2.9
			c-1.9,0-2.7,1.7-2.8,2.9H290.4z"/>
		<path class="st0" d="M295.1,24.6c0.7,0.4,2,0.9,3.1,0.9c1.3,0,1.9-0.5,1.9-1.3s-0.5-1.2-2-1.8c-2.3-0.8-3.3-2.1-3.3-3.5
			c0-2.1,1.8-3.8,4.5-3.8c1.3,0,2.5,0.3,3.2,0.7l-0.6,2.1c-0.5-0.3-1.5-0.7-2.5-0.7c-1.1,0-1.7,0.5-1.7,1.3s0.6,1.1,2.1,1.7
			c2.2,0.8,3.2,1.9,3.2,3.7c0,2.2-1.7,3.8-4.9,3.8c-1.5,0-2.8-0.3-3.7-0.8L295.1,24.6z"/>
		<path class="st0" d="M308.3,12c0,0.9-0.7,1.6-1.7,1.6s-1.7-0.7-1.7-1.6c0-0.9,0.7-1.7,1.7-1.7C307.6,10.4,308.2,11.1,308.3,12z
			 M305,27.4v-12h3.1v12H305z"/>
		<path class="st0" d="M321.9,9.9V24c0,1.2,0,2.6,0.1,3.4h-2.7l-0.1-1.9l0,0c-0.7,1.3-2.2,2.2-3.9,2.2c-2.9,0-5.1-2.4-5.1-6.1
			c0-4,2.5-6.4,5.4-6.4c1.7,0,2.8,0.7,3.4,1.6l0,0V9.9H321.9z M318.9,20.4c0-0.2,0-0.5-0.1-0.8c-0.3-1.2-1.2-2.1-2.6-2.1
			c-2,0-3,1.7-3,4c0,2.2,1.1,3.8,3,3.8c1.2,0,2.3-0.8,2.6-2.1c0.1-0.3,0.1-0.6,0.1-0.9V20.4z"/>
		<path class="st0" d="M326.9,22.2c0.1,2.2,1.8,3.1,3.7,3.1c1.4,0,2.4-0.2,3.3-0.5l0.4,2.1c-1,0.4-2.5,0.7-4.2,0.7
			c-3.9,0-6.2-2.4-6.2-6.1c0-3.3,2-6.5,5.9-6.5s5.2,3.2,5.2,5.9c0,0.6,0,1-0.1,1.3H326.9z M332.1,20.1c0-1.1-0.5-2.9-2.5-2.9
			c-1.9,0-2.7,1.7-2.8,2.9H332.1z"/>
		<path class="st0" d="M337,18.9c0-1.4,0-2.5-0.1-3.6h2.7l0.1,1.8h0.1c0.5-0.9,1.8-2.1,3.8-2.1c2.1,0,4.3,1.4,4.3,5.2v7.1h-3v-6.8
			c0-1.7-0.6-3-2.3-3c-1.2,0-2,0.9-2.4,1.8c-0.1,0.3-0.1,0.6-0.1,1v7.1H337V18.9z"/>
		<path class="st0" d="M359.4,27c-0.6,0.3-1.9,0.6-3.4,0.6c-3.8,0-6.2-2.4-6.2-6.1c0-3.6,2.5-6.4,6.7-6.4c1.1,0,2.2,0.2,2.9,0.6
			l-0.5,2.3c-0.5-0.2-1.2-0.5-2.3-0.5c-2.3,0-3.7,1.7-3.7,3.9c0,2.5,1.6,3.9,3.7,3.9c1.1,0,1.8-0.2,2.4-0.5L359.4,27z"/>
		<path class="st0" d="M364.4,12c0,0.9-0.7,1.6-1.7,1.6S361,12.9,361,12c0-0.9,0.7-1.7,1.7-1.7C363.7,10.4,364.4,11.1,364.4,12z
			 M361.2,27.4v-12h3.1v12H361.2z"/>
		<path class="st0" d="M373.8,27.4l-0.2-1.3h-0.1c-0.7,0.9-2,1.6-3.6,1.6c-2.4,0-3.8-1.8-3.8-3.6c0-3,2.7-4.6,7.1-4.5v-0.2
			c0-0.8-0.3-2.1-2.4-2.1c-1.2,0-2.4,0.4-3.2,0.9l-0.6-2c0.9-0.5,2.4-1.1,4.3-1.1c3.9,0,5,2.4,5,5.1v4.3c0,1.1,0,2.1,0.2,2.9H373.8z
			 M373.4,21.5c-2.1,0-4.2,0.4-4.2,2.2c0,1.2,0.8,1.7,1.7,1.7c1.2,0,2.1-0.8,2.4-1.7c0.1-0.2,0.1-0.5,0.1-0.7V21.5z"/>
		<path class="st0" d="M272.5,38.3V48c0,3.3,1.4,4.8,3.4,4.8c2.2,0,3.5-1.5,3.5-4.8v-9.7h3v9.5c0,5.1-2.6,7.4-6.6,7.4
			c-3.9,0-6.3-2.1-6.3-7.4v-9.5H272.5z"/>
		<path class="st0" d="M285.3,46.5c0-1.4,0-2.5-0.1-3.6h2.7l0.1,1.8h0.1c0.5-0.9,1.8-2.1,3.8-2.1c2.1,0,4.3,1.4,4.3,5.2V55h-3v-6.8
			c0-1.7-0.6-3-2.3-3c-1.2,0-2,0.9-2.4,1.8c-0.1,0.3-0.1,0.6-0.1,1v7h-3.1V46.5z"/>
		<path class="st0" d="M302.2,39.6c0,0.9-0.7,1.6-1.7,1.6s-1.7-0.7-1.7-1.6c0-0.9,0.7-1.7,1.7-1.7C301.5,38,302.1,38.7,302.2,39.6z
			 M298.9,55V43h3.1v12H298.9z"/>
		<path class="st0" d="M306.7,43l2,6.1c0.3,1.1,0.6,2,0.8,3h0.1c0.2-1,0.5-1.9,0.8-3l1.9-6.1h3.2l-4.6,12h-3l-4.5-12H306.7z"/>
		<path class="st0" d="M318.6,49.8c0.1,2.2,1.8,3.1,3.7,3.1c1.4,0,2.4-0.2,3.3-0.5l0.4,2.1c-1,0.4-2.5,0.7-4.2,0.7
			c-3.9,0-6.2-2.4-6.2-6.1c0-3.3,2-6.5,5.9-6.5s5.2,3.2,5.2,5.9c0,0.6,0,1-0.1,1.3H318.6z M323.9,47.7c0-1.1-0.5-2.9-2.5-2.9
			c-1.9,0-2.7,1.7-2.8,2.9H323.9z"/>
		<path class="st0" d="M328.7,46.8c0-1.6,0-2.8-0.1-3.9h2.6l0.1,2.3h0.1c0.6-1.7,2-2.6,3.3-2.6c0.3,0,0.5,0,0.7,0.1v2.9
			c-0.2,0-0.5-0.1-0.9-0.1c-1.5,0-2.4,0.9-2.7,2.3c0,0.3-0.1,0.6-0.1,0.9V55h-3V46.8z"/>
		<path class="st0" d="M336.9,52.2c0.7,0.4,2,0.9,3.1,0.9c1.3,0,1.9-0.5,1.9-1.3s-0.5-1.2-2-1.8c-2.3-0.8-3.3-2.1-3.3-3.5
			c0-2.1,1.8-3.8,4.5-3.8c1.3,0,2.5,0.3,3.2,0.7l-0.6,2.1c-0.5-0.3-1.5-0.7-2.5-0.7c-1.1,0-1.7,0.5-1.7,1.3s0.6,1.1,2.1,1.7
			c2.2,0.8,3.2,1.9,3.2,3.7c0,2.2-1.7,3.8-4.9,3.8c-1.5,0-2.8-0.3-3.7-0.8L336.9,52.2z"/>
		<path class="st0" d="M350.1,39.6c0,0.9-0.7,1.6-1.7,1.6s-1.7-0.7-1.7-1.6c0-0.9,0.7-1.7,1.7-1.7C349.4,38,350,38.7,350.1,39.6z
			 M346.8,55V43h3.1v12H346.8z"/>
		<path class="st0" d="M356.1,39.5V43h2.9v2.3h-2.9v5.3c0,1.5,0.4,2.2,1.6,2.2c0.5,0,0.9-0.1,1.2-0.1V55c-0.4,0.2-1.2,0.3-2.2,0.3
			c-1.1,0-2-0.4-2.6-1c-0.6-0.7-0.9-1.8-0.9-3.4v-5.7h-1.7V43h1.7v-2.7L356.1,39.5z"/>
		<path class="st0" d="M367.6,55l-0.2-1.3h-0.1c-0.7,0.9-2,1.6-3.6,1.6c-2.4,0-3.8-1.8-3.8-3.6c0-3,2.7-4.6,7.1-4.5V47
			c0-0.8-0.3-2.1-2.4-2.1c-1.2,0-2.4,0.4-3.2,0.9l-0.6-2c0.9-0.5,2.4-1.1,4.3-1.1c3.9,0,5,2.4,5,5.1v4.3c0,1.1,0,2.1,0.2,2.9
			C370.3,55,367.6,55,367.6,55z M367.2,49.1c-2.1,0-4.2,0.4-4.2,2.2c0,1.2,0.8,1.7,1.7,1.7c1.2,0,2.1-0.8,2.4-1.7
			c0.1-0.2,0.1-0.5,0.1-0.7V49.1z"/>
		<path class="st0" d="M372.9,46.8c0-1.6,0-2.8-0.1-3.9h2.6l0.1,2.3h0.1c0.6-1.7,2-2.6,3.3-2.6c0.3,0,0.5,0,0.7,0.1v2.9
			c-0.2,0-0.5-0.1-0.9-0.1c-1.5,0-2.4,0.9-2.7,2.3c0,0.3-0.1,0.6-0.1,0.9V55h-3V46.8z"/>
		<path class="st0" d="M384.4,39.6c0,0.9-0.7,1.6-1.7,1.6s-1.7-0.7-1.7-1.6c0-0.9,0.7-1.7,1.7-1.7C383.7,38,384.4,38.7,384.4,39.6z
			 M381.2,55V43h3.1v12H381.2z"/>
		<path class="st0" d="M393.8,55l-0.2-1.3h-0.1c-0.7,0.9-2,1.6-3.6,1.6c-2.4,0-3.8-1.8-3.8-3.6c0-3,2.7-4.6,7.1-4.5V47
			c0-0.8-0.3-2.1-2.4-2.1c-1.2,0-2.4,0.4-3.2,0.9l-0.6-2c0.9-0.5,2.4-1.1,4.3-1.1c3.9,0,5,2.4,5,5.1v4.3c0,1.1,0,2.1,0.2,2.9
			C396.5,55,393.8,55,393.8,55z M393.4,49.1c-2.1,0-4.2,0.4-4.2,2.2c0,1.2,0.8,1.7,1.7,1.7c1.2,0,2.1-0.8,2.4-1.7
			c0.1-0.2,0.1-0.5,0.1-0.7V49.1z"/>
	</g>
	<g>
		<g>
			<g>
				<path class="st1" d="M123,21.8c0,4.3-2.4,6.5-6.7,6.5c-4.4,0-6.9-2-6.9-6.5V11h2.3v10.8c0,3,1.7,4.6,4.7,4.6
					c2.8,0,4.4-1.6,4.4-4.6V11h2.3v10.8H123z"/>
				<path class="st1" d="M126.3,15.7h1.9v1.9l0,0c0.9-1.5,2.2-2.2,4-2.2c3.2,0,4.2,1.9,4.2,4.5V28h-2v-8.3c0-1.5-0.9-2.5-2.5-2.5
					c-2.4,0-3.6,1.6-3.6,3.8v6.9h-2L126.3,15.7L126.3,15.7z"/>
				<path class="st1" d="M141.6,13.5h-2V11h2V13.5z M139.5,15.7h2V28h-2V15.7z"/>
				<path class="st1" d="M150.2,27.9H148l-4.5-12.3h2.3l3.4,10.2l0,0l3.3-10.2h2.1L150.2,27.9z"/>
				<path class="st1" d="M167,24c-0.5,2.7-2.5,4.2-5.2,4.2c-3.9,0-5.8-2.7-5.9-6.4c0-3.7,2.4-6.4,5.8-6.4c4.3,0,5.7,4.1,5.5,7H158
					c-0.1,2.1,1.1,4,3.8,4c1.7,0,2.8-0.8,3.2-2.4C165,24,167,24,167,24z M165,20.6c-0.1-1.9-1.5-3.5-3.5-3.5c-2.1,0-3.4,1.6-3.5,3.5
					H165z"/>
				<path class="st1" d="M169.2,15.7h1.9v2.6l0,0c1-2,2.3-2.9,4.5-2.9v2.1c-3.2,0-4.4,1.8-4.4,5V28h-2V15.7z"/>
				<path class="st1" d="M178.4,24.1c0.1,1.8,1.6,2.4,3.3,2.4c1.3,0,3-0.3,3-1.8c0-1.6-2-1.8-4-2.3s-4-1.1-4-3.5
					c0-2.5,2.4-3.5,4.6-3.5c2.7,0,4.9,0.9,5,3.8h-2c-0.1-1.6-1.5-2.1-2.8-2.1c-1.2,0-2.6,0.3-2.6,1.6c0,1.4,2.1,1.7,4,2.1
					c2,0.5,4,1.1,4,3.5c0,2.9-2.7,3.9-5.2,3.9c-2.8,0-5.1-1.1-5.2-4.1H178.4z"/>
				<path class="st1" d="M191.1,13.5h-2V11h2V13.5z M189.1,15.7h2V28h-2V15.7z"/>
				<path class="st1" d="M205.2,27.9h-2v-1.7l0,0c-0.7,1.4-2.2,1.9-3.9,1.9c-3.8,0-5.6-3-5.6-6.4c0-3.5,1.9-6.4,5.6-6.4
					c1.3,0,3.1,0.5,4,1.9l0,0V11h2v16.9H205.2z M199.5,26.4c2.7,0,3.7-2.3,3.7-4.6c0-2.4-1.1-4.6-3.9-4.6c-2.8,0-3.7,2.3-3.7,4.7
					C195.7,24.2,196.9,26.4,199.5,26.4z"/>
				<path class="st1" d="M219.2,27.9c-0.4,0.2-0.8,0.3-1.4,0.3c-1,0-1.7-0.6-1.7-1.9c-1.1,1.3-2.6,1.9-4.3,1.9c-2.2,0-4.1-1-4.1-3.4
					c0-2.8,2.1-3.4,4.1-3.8c2.2-0.4,4.1-0.3,4.1-1.8c0-1.8-1.4-2-2.7-2c-1.7,0-3,0.5-3.1,2.3h-2c0.1-3,2.5-4.1,5.2-4.1
					c2.2,0,4.6,0.5,4.6,3.4v6.3c0,0.9,0,1.4,0.6,1.4c0.2,0,0.4,0,0.6-0.1L219.2,27.9L219.2,27.9z M215.9,21.6
					c-0.8,0.6-2.3,0.6-3.7,0.8c-1.3,0.2-2.5,0.7-2.5,2.2c0,1.3,1.1,1.8,2.4,1.8c2.7,0,3.7-1.7,3.7-2.8v-2H215.9z"/>
				<path class="st1" d="M232,27.9h-2v-1.7l0,0c-0.7,1.4-2.2,1.9-3.9,1.9c-3.8,0-5.6-3-5.6-6.4c0-3.5,1.9-6.4,5.6-6.4
					c1.3,0,3.1,0.5,4,1.9l0,0V11h2v16.9H232z M226.3,26.4c2.7,0,3.7-2.3,3.7-4.6c0-2.4-1.1-4.6-3.9-4.6c-2.8,0-3.7,2.3-3.7,4.7
					C222.5,24.2,223.7,26.4,226.3,26.4z"/>
			</g>
			<g>
				<path class="st1" d="M109.5,35h12.2v2h-9.8v5.6h9.2v2h-9.2v6.1h9.9v2h-12.2L109.5,35L109.5,35z"/>
				<path class="st1" d="M134.8,52.6h-2v-2l0,0c-0.9,1.6-2.3,2.3-4.2,2.3c-3.4,0-4.4-1.9-4.4-4.7v-8.4h2.1v8.6c0,1.6,1,2.6,2.6,2.6
					c2.5,0,3.8-1.7,3.8-4v-7.2h2.1L134.8,52.6L134.8,52.6z"/>
				<path class="st1" d="M137.9,39.8h2v2.7l0,0c1-2,2.4-3.1,4.7-3v2.2c-3.4,0-4.6,1.9-4.6,5.2v5.7h-2.1L137.9,39.8L137.9,39.8z"/>
			</g>
			<g>
				<path class="st1" d="M151.2,39.5c4,0,6.2,2.9,6.2,6.7c0,3.7-2.1,6.7-6.2,6.7c-4.1,0-6.2-2.9-6.2-6.7
					C145,42.5,147.2,39.5,151.2,39.5z M151.2,51c2.2,0,4-1.7,4-4.8s-1.8-4.8-4-4.8s-4,1.7-4,4.8C147.3,49.3,149,51,151.2,51z"/>
				<path class="st1" d="M160,39.8h2.1v1.7h0.1c0.7-1.4,2.3-2,4.1-2c3.9,0,5.9,3.1,5.9,6.7c0,3.6-1.9,6.6-5.8,6.6
					c-1.3,0-3.2-0.5-4.1-2h-0.1v6.6H160V39.8z M165.9,41.4c-2.8,0-3.9,2.4-3.9,4.8c0,2.5,1.1,4.8,4,4.8s3.8-2.4,3.8-4.9
					C169.8,43.7,168.6,41.4,165.9,41.4z"/>
				<path class="st1" d="M185.4,48.6c-0.6,2.8-2.6,4.3-5.5,4.3c-4.1,0-6-2.8-6.1-6.7c0-3.8,2.5-6.6,6-6.6c4.5,0,5.9,4.2,5.8,7.3H176
					c-0.1,2.2,1.2,4.2,4,4.2c1.7,0,2.9-0.8,3.3-2.5H185.4z M183.4,45c-0.1-2-1.6-3.6-3.7-3.6c-2.2,0-3.5,1.7-3.7,3.6H183.4z"/>
				<path class="st1" d="M199.1,52.6c-0.4,0.2-0.8,0.3-1.5,0.3c-1.1,0-1.8-0.6-1.8-2c-1.2,1.4-2.7,2-4.5,2c-2.3,0-4.2-1-4.2-3.6
					c0-2.9,2.1-3.5,4.3-3.9c2.3-0.4,4.3-0.3,4.3-1.9c0-1.8-1.5-2.1-2.8-2.1c-1.8,0-3.1,0.5-3.2,2.4h-2.1c0.1-3.2,2.6-4.3,5.4-4.3
					c2.3,0,4.8,0.5,4.8,3.5v6.6c0,1,0,1.4,0.7,1.4c0.2,0,0.4,0,0.6-0.1V52.6z M195.7,46c-0.8,0.6-2.4,0.6-3.8,0.9
					c-1.4,0.2-2.6,0.7-2.6,2.3c0,1.4,1.2,1.9,2.5,1.9c2.8,0,3.9-1.7,3.9-2.9L195.7,46L195.7,46z"/>
			</g>
			<g>
				<path class="st1" d="M120.1,79.4h-2v-1.7l0,0c-0.7,1.4-2.2,1.9-3.9,1.9c-3.8,0-5.6-3-5.6-6.5s1.8-6.4,5.6-6.4
					c1.3,0,3.1,0.5,4,1.9l0,0v-6.3h2L120.1,79.4L120.1,79.4z M114.4,77.9c2.7,0,3.7-2.3,3.7-4.6c0-2.4-1.1-4.6-3.9-4.6
					c-2.7,0-3.7,2.3-3.7,4.7C110.6,75.7,111.8,77.9,114.4,77.9z"/>
				<path class="st1" d="M133.6,75.5c-0.5,2.7-2.5,4.2-5.2,4.2c-3.9,0-5.8-2.7-5.9-6.5c0-3.7,2.4-6.4,5.8-6.4c4.3,0,5.7,4.1,5.5,7
					h-9.2c-0.1,2.1,1.1,4,3.8,4c1.7,0,2.8-0.8,3.2-2.4h2V75.5z M131.7,72.1c-0.1-1.9-1.5-3.5-3.5-3.5c-2.1,0-3.4,1.6-3.5,3.5H131.7z
					"/>
				<path class="st1" d="M136,62.5h2v16.9h-2V62.5z"/>
				<path class="st1" d="M152.7,62.5h2.5l6.6,16.9h-2.5l-1.9-5.1h-7.2l-1.9,5.1H146L152.7,62.5z M151,72.4h5.7l-2.8-7.9l0,0
					L151,72.4z"/>
				<path class="st1" d="M165.9,67.1h2.4v1.8h-2.4v7.6c0,0.9,0.3,1.1,1.5,1.1h0.9v1.8h-1.5c-2.1,0-2.9-0.4-2.9-2.7v-7.8h-2.1v-1.8
					h2.1v-3.7h2V67.1z"/>
				<path class="st1" d="M170.7,62.5h2v16.9h-2V62.5z"/>
				<path class="st1" d="M186.7,79.3c-0.4,0.2-0.8,0.3-1.4,0.3c-1,0-1.7-0.6-1.7-1.9c-1.1,1.3-2.6,1.9-4.3,1.9c-2.2,0-4.1-1-4.1-3.4
					c0-2.8,2.1-3.4,4.1-3.8c2.2-0.4,4.1-0.3,4.1-1.8c0-1.8-1.4-2-2.7-2c-1.7,0-3,0.5-3.1,2.3h-2c0.1-3,2.5-4.1,5.2-4.1
					c2.2,0,4.6,0.5,4.6,3.4v6.3c0,0.9,0,1.4,0.6,1.4c0.2,0,0.4,0,0.6-0.1L186.7,79.3L186.7,79.3z M183.4,73.1
					c-0.8,0.6-2.3,0.6-3.6,0.8c-1.3,0.2-2.5,0.7-2.5,2.2c0,1.3,1.1,1.8,2.4,1.8c2.7,0,3.7-1.7,3.7-2.8L183.4,73.1L183.4,73.1z
					 M181.3,62.1h2.6l-3.1,3.4h-1.5L181.3,62.1z"/>
				<path class="st1" d="M188.6,67.1h1.9V69l0,0c0.9-1.5,2.2-2.2,4-2.2c3.2,0,4.2,1.9,4.2,4.5v8.1h-2v-8.3c0-1.5-0.9-2.5-2.5-2.5
					c-2.4,0-3.6,1.6-3.6,3.8v6.9h-2L188.6,67.1L188.6,67.1z"/>
				<path class="st1" d="M204.6,67.1h2.4v1.8h-2.4v7.6c0,0.9,0.3,1.1,1.5,1.1h0.9v1.8h-1.5c-2.1,0-2.9-0.4-2.9-2.7v-7.8h-2.1v-1.8
					h2.1v-3.7h2V67.1z"/>
				<path class="st1" d="M211.4,64.9h-2v-2.5h2V64.9z M209.4,67.1h2v12.3h-2V67.1z"/>
				<path class="st1" d="M222.8,71.1c-0.3-1.5-1.4-2.4-3-2.4c-2.9,0-3.8,2.3-3.8,4.8c0,2.3,1,4.5,3.6,4.5c1.9,0,3.1-1.1,3.4-3h2.1
					c-0.5,3-2.3,4.8-5.4,4.8c-3.7,0-5.7-2.6-5.7-6.3c0-3.7,1.9-6.6,5.8-6.6c2.8,0,5,1.3,5.3,4.2H222.8z"/>
				<path class="st1" d="M232.5,66.8c3.9,0,5.9,2.8,5.9,6.4s-2.1,6.4-5.9,6.4c-3.9,0-5.9-2.8-5.9-6.4
					C226.6,69.7,228.6,66.8,232.5,66.8z M232.5,77.9c2.1,0,3.8-1.7,3.8-4.6c0-3-1.7-4.6-3.8-4.6s-3.8,1.7-3.8,4.6
					C228.7,76.2,230.4,77.9,232.5,77.9z"/>
			</g>
		</g>
		<g>
			<g>
				<path class="st0" d="M7.1,40.5l1.5,0.6l0,0v-1.2l0,0L7.1,40.5C7.1,40.5,7,40.5,7.1,40.5C7,40.5,7.1,40.5,7.1,40.5z"/>
				<path class="st0" d="M6.4,53.5h1.8c0.1,0,0.1,0,0.1-0.1s0.1-0.3,0.1-0.5s0-0.3-0.1-0.4c-0.1-0.2-0.4-0.4-0.9-0.4
					c-0.8,0-1,0.6-1,0.9C6.3,53.2,6.3,53.4,6.4,53.5C6.3,53.5,6.3,53.5,6.4,53.5z"/>
				<path class="st0" d="M3.2,10.2c-0.9,0-1.6,0.7-1.6,1.6v66c0,0.9,0.7,1.6,1.6,1.6h1.4c0-0.3,0.4-0.5,1-0.5c0.8,0,2.3-0.1,3.2-0.2
					c5.1-0.6,7.3-4,9.3-8.6L43,12.9c0.6-1.3,1-2.1,1.3-2.6L3.2,10.2L3.2,10.2z M6,14.9c0-0.1,0-0.1,0.1-0.1c0,0,0.1,0,0.1,0.1V15
					c0,0.1,0,0.1,0.1,0.1c0,0,0.1,0,0.2-0.1c0.5-0.3,0.9-0.5,1.3-0.8c-0.3-0.2-1.1-0.7-1.2-0.8c-0.1,0-0.2-0.1-0.2-0.1
					s-0.1,0-0.1,0.1s0,0.1,0,0.2c0,0,0,0.1-0.1,0.1c0,0-0.1,0-0.1-0.1c0-0.2,0-0.5,0-0.6s0-0.4,0-0.6c0-0.1,0-0.1,0.1-0.1
					c0,0,0.1,0,0.1,0.1s0,0.1,0,0.2c0,0.1,0.2,0.3,0.5,0.4l1.4,1c0.3-0.2,1.9-1.2,2.1-1.4c0.1-0.1,0.2-0.2,0.2-0.3s0-0.2,0-0.2
					s0-0.1,0.1-0.1c0,0,0.1,0,0.1,0.1v0.2c0,0.1,0,0.6,0,1.1c0,0.2,0,0.2-0.1,0.2c0,0-0.1,0-0.1-0.1c0,0,0-0.1-0.1,0
					c-0.6,0.4-1.1,0.7-1.6,1l1.4,0.9c0.1,0.1,0.2,0.1,0.3,0.1s0.1-0.1,0.1-0.1v-0.1c0,0,0-0.1,0.1-0.1c0,0,0.1,0,0.1,0.1v0.1
					c0,0,0,0.4,0,0.6c0,0.1,0,0.4,0,0.5v0.1c0,0.1,0,0.1-0.1,0.1c0,0-0.1,0-0.1-0.1c0,0,0-0.1,0-0.2c0-0.2-0.1-0.3-0.4-0.5l-1.6-1.2
					l-1.7,1.1c-0.2,0.2-0.4,0.3-0.4,0.5c0,0.1,0,0.2,0,0.3c0,0,0,0.1-0.1,0.1c0,0,0,0,0-0.1s0-0.6,0-0.9C6,15.5,6,15.1,6,14.9z
					 M6,24.1C6,24,6,24,6,24s0.1,0,0.1,0.1s0,0.2,0,0.2c0,0.2,0.1,0.2,0.3,0.2s0.4,0,1.3,0h1c0.8,0,1.1,0,1.2-0.1
					c0.1-0.1,0.1-0.3,0.1-0.8c0-0.3,0-0.6-0.2-0.7c-0.1-0.1-0.2-0.1-0.4-0.2c-0.1,0-0.1,0-0.1-0.1l0.1-0.1c0.1,0,0.5,0,0.7,0.1
					c0.1,0,0.2,0.1,0.2,0.4c0,0.4,0,0.8,0,1.1c0,0.3,0,0.6,0,0.8c0,0.1,0,0.2,0,0.3c0,0.1,0,0.3,0,0.4s0,0.1-0.1,0.1
					c0,0-0.1,0-0.1-0.1s0-0.2,0-0.2c0-0.1-0.1-0.2-0.3-0.2c-0.3,0-0.7,0-1.3,0h-1c-0.9,0-1.1,0-1.3,0s-0.3,0.1-0.3,0.3
					c0,0,0,0.1,0,0.2s0,0.1-0.1,0.1c0,0-0.1,0-0.1-0.1c0-0.3,0-0.7,0-0.8C6,24.8,6,24.3,6,24.1z M6,29.8c0,0,0.1,0,0.4,0
					c0.1,0,0.3,0,0.4,0c0,0,0.1,0,0.1,0.1c0,0,0,0-0.1,0c0,0-0.1,0-0.2,0c-0.1,0-0.2,0.1-0.2,0.4c0,0.1,0,0.8,0,1c0,0,0,0,0.1,0H8
					h0.1c0-0.1,0-0.9,0-1.1c0-0.1,0-0.2-0.1-0.3l-0.1-0.1c0,0,0,0,0.1,0c0,0,0.1,0,0.4,0c0.1,0,0.4,0,0.4,0s0.1,0,0.1,0.1V30
					c-0.1,0-0.1,0-0.2,0c-0.1,0-0.2,0.1-0.2,0.3c0,0.1,0,0.8,0,1c0,0,0,0,0.1,0h0.5c0.2,0,0.7,0,0.9,0c0.4,0,0.5-0.2,0.5-0.8
					c0-0.2,0-0.4-0.1-0.6s-0.2-0.2-0.4-0.3c-0.1,0-0.1,0-0.1-0.1l0.1-0.1c0.1,0,0.5,0,0.7,0.1c0.2,0,0.2,0.1,0.2,0.3
					c0,0.5,0,0.8,0,1.1c0,0.3,0,0.5,0,0.7c0,0.1,0,0.2,0,0.3c0,0.1,0,0.3,0,0.4s0,0.1-0.1,0.1c0,0-0.1,0-0.1-0.1s0-0.2,0-0.2
					c0-0.1-0.1-0.2-0.3-0.2c-0.3,0-0.7,0-1.3,0h-1c-0.9,0-1.1,0-1.3,0S6.5,32,6.5,32.2v0.2c0,0.1,0,0.1-0.1,0.1l-0.1-0.1
					c0-0.3,0-0.7,0-0.9c0-0.2,0-1.5,0-1.7C6,30.1,6,30,6,30C6,29.9,5.9,29.9,6,29.8C5.9,29.8,6,29.8,6,29.8z M10.4,58.5
					c0,0.1,0,0.3,0,0.4c0,0.1,0,0.1-0.1,0.1c0,0-0.1,0-0.1-0.1s0-0.2,0-0.2c0-0.1-0.1-0.2-0.3-0.2c-0.3,0-0.7,0-1.3,0h-1
					c-0.9,0-1.1,0-1.3,0S6,58.6,6,58.8V59c0,0.1,0,0.1-0.1,0.1c0,0-0.1,0-0.1-0.1c0-0.3,0-0.7,0-0.9s0-1.5,0-1.7c0-0.1,0-0.2,0-0.3
					V56c0,0,0,0,0.1,0c0,0,0.1,0,0.4,0.1c0.1,0,0.3,0,0.4,0c0,0,0.1,0,0.1,0.1c0,0,0,0-0.1,0c0,0-0.1,0-0.2,0
					c-0.1,0-0.2,0.1-0.2,0.4c0,0.1,0,0.8,0,1c0,0,0,0,0.1,0h1.5H8c0-0.1,0-0.9,0-1.1c0-0.1,0-0.2-0.1-0.3l-0.1-0.1c0,0,0,0,0.1,0
					c0,0,0.1,0,0.4,0c0.1,0,0.4,0,0.4,0s0.1,0,0.1,0.1v0.1c-0.1,0-0.1,0-0.2,0c-0.1,0-0.2,0.1-0.2,0.3c0,0.1,0,0.8,0,1
					c0,0,0,0,0.1,0H9c0.2,0,0.7,0,0.9,0c0.4,0,0.5-0.2,0.5-0.8c0-0.2,0-0.4-0.1-0.6c-0.1-0.2-0.2-0.2-0.4-0.3c-0.1,0-0.1,0-0.1-0.1
					l0.1-0.1c0.1,0,0.5,0,0.7,0.1c0.2,0,0.2,0.1,0.2,0.3c0,0.5,0,0.8,0,1.1s0,0.5,0,0.7C10.4,58.2,10.4,58.4,10.4,58.5z M10,70.5
					c0.1,0.1,0.2,0.1,0.3,0.1s0.1-0.1,0.1-0.1v-0.1c0,0,0-0.1,0.1-0.1c0,0,0.1,0,0.1,0.1v0.1c0,0,0,0.4,0,0.6c0,0.1,0,0.4,0,0.5v0.1
					c0,0.1,0,0.1-0.1,0.1c0,0-0.1,0-0.1-0.1c0,0,0-0.1,0-0.2c0-0.2-0.1-0.3-0.4-0.5l-1.6-1.2l-1.7,1.1c-0.2,0.2-0.4,0.3-0.4,0.5
					c0,0.1,0,0.2,0,0.3c0,0,0,0.1-0.1,0.1c0,0,0,0,0-0.1s0-0.6,0-0.9c0-0.1,0-0.5,0-0.7c0-0.1,0-0.1,0.1-0.1c0,0,0.1,0,0.1,0.1v0.1
					c0,0.1,0,0.1,0.1,0.1c0,0,0.1,0,0.2-0.1c0.5-0.3,0.9-0.5,1.3-0.8c-0.3-0.2-1.1-0.7-1.2-0.8c-0.1,0-0.2-0.1-0.2-0.1
					s-0.1,0-0.1,0.1s0,0.1,0,0.2c0,0,0,0.1-0.1,0.1c0,0-0.1,0-0.1-0.1c0-0.2,0-0.5,0-0.6s0-0.4,0-0.6c0-0.1,0-0.1,0.1-0.1
					c0,0,0.1,0,0.1,0.1s0,0.1,0,0.2S6.7,68,7,68.2l1.4,1c0.3-0.2,1.9-1.2,2.1-1.4c0.1-0.1,0.2-0.2,0.2-0.3c0-0.1,0-0.2,0-0.2
					s0-0.1,0.1-0.1c0,0,0.1,0,0.1,0.1v0.2c0,0.1,0,0.6,0,1.1c0,0.2,0,0.2-0.1,0.2c0,0-0.1,0-0.1-0.1c0,0,0-0.1-0.1,0
					c-0.6,0.4-1.1,0.7-1.6,1L10,70.5z M6,53c0-0.4,0-0.8,0.3-1.2c0.1-0.2,0.4-0.4,0.8-0.4c0.4,0,0.8,0.2,1.3,0.8
					c0.7-0.5,1.2-1,1.6-1.3c0.3-0.3,0.4-0.6,0.4-0.7c0-0.1,0-0.1,0-0.1s0-0.1,0.1-0.1c0,0,0.1,0,0.1,0.1v0.6c0,0.3,0,0.5-0.1,0.7
					c-0.1,0.3-0.4,0.5-0.9,0.8c-0.3,0.2-0.7,0.5-0.8,0.6v0.1v0.5l0,0h0.1c0.5,0,1,0,1.3,0c0.2,0,0.3,0,0.3-0.2c0-0.1,0-0.2,0-0.3
					c0,0,0-0.1,0.1-0.1l0.1,0.1c0,0.4,0,0.9,0,1s0,0.5,0,0.7c0,0.1,0,0.1-0.1,0.1c0,0-0.1,0-0.1-0.1s0-0.2,0-0.2
					c0-0.1-0.1-0.2-0.3-0.2c-0.3,0-0.7,0-1.3,0h-1c-0.9,0-1.1,0-1.3,0s-0.3,0.1-0.3,0.3v0.2c0,0.1,0,0.1-0.1,0.1c0,0-0.1,0-0.1-0.1
					c0-0.3,0-0.7,0-0.8C6,53.7,6,53.2,6,53z M6,47.9C6,47.8,6,47.8,6,47.9c0.1-0.1,0.1-0.1,0.1,0s0,0.1,0,0.2c0,0.2,0.1,0.2,0.3,0.2
					s0.4,0,1.3,0h1c0.6,0,1,0,1.3,0c0.2,0,0.3-0.1,0.3-0.2c0-0.1,0-0.2,0-0.3s0-0.1,0.1-0.1c0,0,0.1,0,0.1,0.1c0,0.4,0,0.8,0,1
					c0,0.1,0,0.6,0,0.8c0,0.1,0,0.1-0.1,0.1c0,0-0.1,0-0.1-0.1s0-0.2,0-0.2c0-0.1-0.1-0.2-0.3-0.2s-0.7,0-1.3,0h-1
					c-0.9,0-1.1,0-1.3,0s-0.3,0.1-0.3,0.2c0,0.1,0,0.1,0,0.2c0,0.1,0,0.1-0.1,0.1c0,0,0,0,0-0.1c0-0.2,0-0.6,0-0.8
					C6,48.5,6,48.1,6,47.9z M6,37.6c0-0.2,0-0.4,0-0.6v-2.5c0-0.2,0-0.3,0-0.4C6,34,6,34,6,33.9c0,0,0,0,0.1,0s0.6,0,0.7,0
					c0.1,0,0.1,0,0.1,0.1c0,0,0,0.1-0.1,0.1H6.7c-0.2,0-0.3,0.2-0.3,0.7v0.8h2.4c0.5,0,1,0,1.3,0c0.2,0,0.3-0.1,0.3-0.2
					c0-0.1,0-0.2,0-0.3s0-0.1,0.1-0.1c0,0,0.1,0,0.1,0.1c0,0.4,0,0.8,0,1c0,0.1,0,0.6,0,0.8c0,0.1,0,0.1-0.1,0.1c0,0-0.1,0-0.1-0.1
					s0-0.2,0-0.2c0-0.1-0.1-0.2-0.3-0.2c-0.3,0-0.7,0-1.3,0H6.3v0.9c0,0.4,0,0.5,0.2,0.6c0.1,0.1,0.2,0.1,0.2,0.1
					c0.1,0,0.1,0,0.1,0.1c0,0,0,0.1-0.1,0.1S6,38.2,6,38.2c-0.1,0-0.1,0-0.1-0.1C5.9,37.8,6,37.7,6,37.6z M6,40.1
					c0.3-0.1,2.7-1.2,3.6-1.6c0.5-0.2,0.6-0.4,0.6-0.5s0-0.2,0-0.2c0-0.1,0-0.1,0.1-0.1c0,0,0.1,0,0.1,0.3c0,0.2,0,0.7,0,1.2
					c0,0.1,0,0.2,0,0.2s-0.1,0-0.1-0.1l-0.1-0.1L9,39.7c0,0,0,0,0,0.1v1.4c0,0,0,0,0,0.1l0.8,0.3c0.1,0.1,0.3,0.1,0.4,0.1
					c0.1,0,0.2-0.1,0.2-0.2v-0.1c0-0.1,0-0.1,0.1-0.1c0,0,0.1,0,0.1,0.1c0,0.2,0,0.5,0,0.7c0,0.1,0,0.4,0,0.7c0,0.1,0,0.1-0.1,0.1
					c0,0-0.1,0-0.1-0.1s0-0.1,0-0.2c0-0.3-0.2-0.4-0.5-0.5l-3.7-1.6C6,40.4,6,40.4,6,40.3C5.8,40.2,5.9,40.2,6,40.1z M5.9,46.6
					c0,0,0-0.1,0.1-0.3c0-0.2,0-0.4,0-0.6v-2.5c0-0.2,0-0.3,0-0.4c0-0.1,0-0.1,0-0.2c0,0,0,0,0.1,0s0.6,0,0.7,0c0.1,0,0.1,0,0.1,0.1
					c0,0,0,0.1-0.1,0.1H6.7c-0.2,0-0.3,0.2-0.3,0.7v0.8h2.4c0.5,0,1,0,1.3,0c0.2,0,0.3-0.1,0.3-0.2c0-0.1,0-0.2,0-0.3s0-0.1,0.1-0.1
					c0,0,0.1,0,0.1,0.1c0,0.4,0,0.8,0,1c0,0.1,0,0.6,0,0.8c0,0.1,0,0.1-0.1,0.1c0,0-0.1,0-0.1-0.1s0-0.2,0-0.2
					c0-0.1-0.1-0.2-0.3-0.2c-0.3,0-0.7,0-1.3,0H6.3v0.9c0,0.4,0,0.5,0.2,0.6c0.1,0.1,0.2,0.1,0.2,0.1c0.1,0,0.1,0,0.1,0.1
					c0,0,0,0.1-0.1,0.1S6,46.9,6,46.9C5.9,46.6,5.9,46.6,5.9,46.6z M10.4,75.2c0,0.1,0,0.3,0,0.4s0,0.1-0.1,0.1c0,0-0.1,0-0.1-0.1
					s0-0.2,0-0.2c0-0.1-0.1-0.2-0.3-0.2c-0.3,0-0.7,0-1.3,0h-1c-0.9,0-1.1,0-1.3,0S6,75.3,6,75.5c0,0.1,0,0.2,0,0.2
					c0,0.1,0,0.1-0.1,0.1c0,0-0.1,0-0.1-0.1c0-0.3,0-0.7,0-0.9c0-0.2,0-1.5,0-1.7c0-0.1,0-0.2,0-0.3v-0.1c0,0,0,0,0.1,0
					c0,0,0.1,0,0.4,0c0.1,0,0.3,0,0.4,0c0,0,0.1,0,0.1,0.1c0,0,0,0-0.1,0c0,0-0.1,0-0.2,0c-0.1,0.1-0.2,0.1-0.2,0.4c0,0.1,0,0.8,0,1
					c0,0,0,0,0.1,0h1.5H8c0-0.1,0-0.9,0-1.1c0-0.1,0-0.2-0.1-0.3l-0.1-0.1c0,0,0,0,0.1,0c0,0,0.1,0,0.4,0c0.1,0,0.4,0,0.4,0
					s0.1,0,0.1,0.1v0.1c-0.1,0-0.1,0-0.2,0c-0.1,0-0.2,0.1-0.2,0.3c0,0.1,0,0.8,0,1c0,0,0,0,0.1,0H9c0.2,0,0.7,0,0.9,0
					c0.4,0,0.5-0.2,0.5-0.8c0-0.2,0-0.4-0.1-0.6s-0.2-0.2-0.4-0.3c-0.1,0-0.1,0-0.1-0.1l0.1-0.1c0.1,0,0.5,0.1,0.7,0.1
					s0.2,0.1,0.2,0.3c0,0.5,0,0.8,0,1.1c0,0.3,0,0.5,0,0.7C10.4,74.9,10.4,75.1,10.4,75.2z M10.2,62.4L6.6,64
					c-0.3,0.1-0.4,0.2-0.4,0.5c0,0.1,0,0.2,0,0.2c0,0.1,0,0.1-0.1,0.1c0,0-0.1-0.1-0.1-0.2c0-0.3,0-0.7,0-0.9s0-0.5,0-0.8
					c0-0.1,0-0.1,0.1-0.1c0,0,0.1,0,0.1,0.1s0,0.2,0,0.2l0.1,0.1c0.1,0,0.2-0.1,0.4-0.1l2.6-1l0,0c-0.6-0.3-2.5-1-2.9-1.2
					c-0.1,0-0.2-0.1-0.2-0.1c-0.1,0-0.1,0-0.1,0.1s0,0.2,0,0.2c0,0.1,0,0.1-0.1,0.1c0-0.1,0-0.1,0-0.2c0-0.3,0-0.6,0-0.7
					c0-0.1,0-0.4,0-0.6c0-0.1,0-0.1,0.1-0.1c0,0,0.1,0,0.1,0.1s0,0.2,0.1,0.3s0.1,0.2,0.5,0.3c0.6,0.2,0.9,0.4,1.6,0.7
					c0.9,0.4,1.5,0.7,1.8,0.8c0.3,0.2,0.4,0.2,0.4,0.3C10.5,62.3,10.5,62.3,10.2,62.4z M10.1,21c-0.3,0.3-0.7,0.6-1.6,0.6H7.7
					c-0.9,0-1.1,0-1.3,0s-0.3,0.1-0.3,0.3v0.2c0,0.1,0,0.1-0.1,0.1c0,0-0.1,0-0.1-0.1c0-0.3,0-0.7,0-0.9c0-0.2,0-0.6,0-0.8
					c0-0.1,0-0.1,0.1-0.1c0,0,0.1,0,0.1,0.1s0,0.1,0,0.2c0,0.2,0.1,0.2,0.3,0.2s0.4,0,1.3,0h0.8c0.9,0,1.2-0.2,1.4-0.5
					s0.2-0.6,0.2-0.8c0-0.3-0.1-0.6-0.3-0.8c-0.3-0.3-0.8-0.4-1.4-0.4H7.7c-0.9,0-1.1,0-1.3,0s-0.3,0.1-0.3,0.3v0.2
					c0,0.1,0,0.1-0.1,0.1c0,0-0.1,0-0.1-0.1C6,18.4,6,18,6,18c0-0.1,0-0.5,0-0.7c0-0.1,0-0.1,0.1-0.1c0,0,0.1,0,0.1,0.1s0,0.1,0,0.2
					c0,0.2,0.1,0.2,0.3,0.2s0.4,0,1.3,0h0.6c0.7,0,1.4,0.1,1.8,0.6c0.4,0.4,0.4,0.9,0.4,1.3C10.5,19.9,10.5,20.5,10.1,21z"/>
			</g>
			<g>
				<path class="st0" d="M84.4,33.4c0.3,0,0.8-0.1,1.1-0.6c0.1-0.1,0.2-0.3,0.2-0.5V32l0,0h-1.4c-0.4,0-0.5,0-0.6,0.2
					s-0.1,0.3-0.1,0.4C83.6,33,83.7,33.4,84.4,33.4z"/>
				<path class="st0" d="M83.5,37.8c0,0.4,0.2,1.4,2,1.4c1.4,0,2.2-0.8,2.2-1.8c0-0.7-0.4-1.5-1.9-1.5
					C84.5,35.9,83.5,36.6,83.5,37.8z"/>
				<path class="st0" d="M86.8,33.1c0.4,0,0.9-0.2,0.9-0.8c0-0.1,0-0.2,0-0.3c0,0,0-0.1-0.1-0.1h-1.5C86,32,86,32,86,32
					c0,0.1,0,0.1,0,0.3s0,0.4,0.1,0.5C86.2,33,86.5,33.1,86.8,33.1z"/>
				<path class="st0" d="M87.6,60h-1.9c-0.1,0-0.1,0-0.1,0.1s-0.1,0.3-0.1,0.5s0,0.3,0.1,0.4c0.1,0.2,0.4,0.4,0.9,0.4
					c0.9,0,1.1-0.6,1.1-1C87.7,60.3,87.7,60.1,87.6,60L87.6,60z"/>
				<path class="st0" d="M86.6,43.5c0.9,0,1.1-0.6,1.1-1c0-0.2,0-0.3,0-0.4c0,0,0-0.1-0.1-0.1h-1.9c-0.1,0-0.1,0-0.1,0.1
					s-0.1,0.3-0.1,0.5s0,0.3,0.1,0.4C85.8,43.3,86,43.5,86.6,43.5z"/>
				<path class="st0" d="M86.8,27.7l-1.6-0.6l0,0v1.2l0,0L86.8,27.7C86.8,27.8,86.9,27.8,86.8,27.7C86.9,27.7,86.8,27.7,86.8,27.7z"
					/>
				<path class="st0" d="M90.3,10.2H46.7l0,0c0.3,0.5,0.7,1.2,1.2,2.4c1.7,3.5,19,41.5,25.7,55.5c4,8.2,7.2,9.7,9.5,10.2
					c1.7,0.5,3.3,0.6,4.4,0.6c0.6,0,1.1,0.1,1.1,0.5h1.7c0.9,0,1.6-0.7,1.6-1.6v-66C91.8,10.9,91.1,10.2,90.3,10.2z M83.3,12.6
					c0-0.2,0-0.3,0-0.4c0-0.1,0-0.1,0.1-0.1c0,0,0.1,0,0.1,0.1s0,0.2,0,0.2c0,0.1,0.1,0.2,0.3,0.2c0.3,0,0.8,0,1.3,0h1.1
					c0.9,0,1.1,0,1.3,0c0.2,0,0.3-0.1,0.3-0.3c0-0.1,0-0.2,0-0.2c0-0.1,0-0.1,0.1-0.1c0,0,0.1,0,0.1,0.1c0,0.3,0,0.7,0,0.9
					s0,1.6,0,1.7c0,0.1,0,0.2,0,0.3v0.1c0,0,0,0-0.1,0c0,0-0.1,0-0.4-0.1c-0.1,0-0.3,0-0.4,0c0,0-0.1,0-0.1-0.1c0,0,0,0,0.1,0h0.2
					c0.1,0,0.2-0.1,0.2-0.4c0-0.1,0-0.9,0-1c0,0,0,0-0.1,0H86h-0.1c0,0.1,0,1,0,1.1s0,0.2,0.1,0.3l0.1,0.1c0,0,0,0.1-0.1,0.1
					c0,0-0.1,0-0.5-0.1c-0.1,0-0.4,0-0.4,0C85,15,85,15,85,14.9c0,0,0-0.1,0.1-0.1s0.1,0,0.2,0s0.2-0.1,0.2-0.3c0-0.1,0-0.8,0-1
					c0,0,0,0-0.1,0h-0.5c-0.2,0-0.7,0-0.9,0c-0.4,0-0.5,0.2-0.5,0.8c0,0.2,0,0.4,0.1,0.6c0.1,0.2,0.2,0.2,0.5,0.3
					c0.1,0,0.1,0,0.1,0.1s-0.1,0.1-0.1,0.1c-0.1,0-0.6,0-0.7-0.1c-0.2,0-0.2-0.1-0.2-0.3c0-0.5,0-0.8,0-1.2c0-0.3,0-0.5,0-0.7
					C83.3,12.9,83.3,12.7,83.3,12.6z M88,17.4c0,0.1,0,0.1-0.1,0.1c0,0-0.1,0-0.1-0.1c0,0,0-0.1,0-0.2s-0.1-0.1-0.1-0.1
					s-0.1,0-0.2,0.1c-0.5,0.3-0.9,0.5-1.4,0.8c0.3,0.2,1.1,0.7,1.3,0.8c0.1,0.1,0.2,0.1,0.2,0.1s0.1,0,0.1-0.1s0-0.1,0-0.2
					c0,0,0-0.1,0.1-0.1c0,0,0.1,0,0.1,0.1c0,0.2,0,0.5,0,0.7c0,0.1,0,0.4,0,0.6c0,0.1,0,0.1-0.1,0.1c0,0-0.1,0-0.1-0.1s0-0.1,0-0.2
					s-0.2-0.3-0.5-0.4l-1.5-1c-0.3,0.2-2,1.2-2.2,1.4c-0.1,0.1-0.2,0.2-0.2,0.3c0,0.1,0,0.2,0,0.2s0,0.1-0.1,0.1l-0.1-0.1V20
					c0-0.1,0-0.6,0-1.2c0-0.2,0-0.2,0.1-0.2c0,0,0.1,0,0.1,0.1c0,0,0.1,0.1,0.1,0c0.6-0.4,1.2-0.7,1.7-1l-1.5-0.9
					c-0.1-0.1-0.2-0.1-0.3-0.1c-0.1,0-0.1,0.1-0.1,0.1v0.1c0,0,0,0.1-0.1,0.1c0,0-0.1,0-0.1-0.1v-0.1c0,0,0-0.4,0-0.6
					c0-0.1,0-0.4,0-0.5v-0.1c0-0.1,0-0.1,0.1-0.1c0,0,0.1,0,0.1,0.1c0,0,0,0.1,0,0.2c0.1,0.2,0.2,0.3,0.5,0.5l1.7,1.2l1.8-1.1
					c0.2-0.2,0.4-0.3,0.5-0.5c0-0.1,0-0.2,0-0.3c0,0,0-0.1,0.1-0.1l0.1,0.1c0,0.2,0,0.7,0,1C88,16.8,88,17.2,88,17.4z M83.3,31.2
					c0-0.2,0-0.3,0-0.4s0-0.1,0.1-0.1c0,0,0.1,0,0.1,0.1s0,0.2,0,0.2c0,0.1,0.1,0.2,0.3,0.2c0.3,0,0.8,0,1.3,0h1.1
					c0.9,0,1.1,0,1.3,0c0.2,0,0.3-0.1,0.3-0.3v-0.2c0-0.1,0-0.1,0.1-0.1c0,0,0.1,0,0.1,0.1c0,0.3,0,0.7,0,0.8c0,0.3,0,0.7,0,0.9
					c0,1.1-0.6,1.3-0.9,1.3c-0.5,0-0.9-0.3-1.1-0.7c-0.2,0.5-0.6,1.2-1.4,1.2c-0.7,0-1.4-0.5-1.4-1.7c0-0.1,0-0.3,0-0.5s0-0.4,0-0.5
					C83.3,31.5,83.3,31.3,83.3,31.2z M83.3,46.2c0-0.1,0-0.3,0-0.4v-0.1c0,0,0,0,0-0.1V45c0-0.3,0-0.5,0.1-0.7
					c0.1-0.3,0.4-0.5,0.9-0.9c0.3-0.2,0.8-0.5,0.9-0.6v-0.1v-0.6c0,0,0-0.1-0.1-0.1H85c-0.6,0-1.1,0-1.3,0c-0.2,0-0.3,0-0.3,0.2
					c0,0.1,0,0.2,0,0.3c0,0,0,0.1-0.1,0.1l-0.1-0.1c0-0.4,0-0.9,0-1s0-0.5,0-0.8c0-0.1,0-0.1,0.1-0.1c0,0,0.1,0,0.1,0.1s0,0.2,0,0.2
					c0,0.1,0.1,0.2,0.3,0.2c0.3,0,0.8,0,1.3,0h1.1c0.9,0,1.1,0,1.3,0c0.2,0,0.3-0.1,0.3-0.3v-0.2c0-0.1,0-0.1,0.1-0.1
					c0,0,0.1,0,0.1,0.1c0,0.3,0,0.7,0,0.9s0,0.8,0,1c0,0.4,0,0.9-0.3,1.2c-0.1,0.2-0.4,0.4-0.9,0.4s-0.9-0.3-1.4-0.9
					c-0.7,0.6-1.3,1-1.7,1.4c-0.4,0.3-0.4,0.6-0.4,0.7c0,0.1,0,0.1,0,0.1l0,0c0,0,0,0,0,0.1s0,0.2,0,0.2c0,0.1,0.1,0.2,0.3,0.2
					c0.3,0,0.8,0,1.3,0h1.1c0.9,0,1.1,0,1.3,0c0.2,0,0.3-0.1,0.3-0.3c0-0.1,0-0.2,0-0.2c0-0.1,0-0.1,0.1-0.1l0.1,0.1
					c0,0.3,0,0.7,0,0.9s0,1.6,0,1.7c0,0.1,0,0.2,0,0.3v0.1c0,0,0,0-0.1,0c0,0-0.1,0-0.4-0.1c-0.1,0-0.3,0-0.4,0c0,0-0.1,0-0.1-0.1
					c0,0,0-0.1,0.1-0.1H87c0.1,0,0.2-0.1,0.2-0.4c0-0.1,0-0.9,0-1c0,0,0,0-0.1,0H86h-0.1c0,0.1,0,1,0,1.1s0,0.2,0.1,0.3
					c0,0.1,0.1,0.1,0.1,0.1s0,0-0.1,0c0,0-0.1,0-0.5,0c-0.1,0-0.4,0-0.4,0c-0.1,0-0.1,0-0.1-0.1c0,0,0-0.1,0.1-0.1s0.1,0,0.2,0
					s0.2-0.1,0.2-0.3c0-0.1,0-0.8,0-1c0,0,0,0-0.1,0h-0.5c-0.2,0-0.7,0-0.9,0c-0.4,0-0.5,0.2-0.5,0.8c0,0.2,0,0.4,0.1,0.6
					c0.1,0.2,0.2,0.2,0.5,0.3c0.1,0,0.1,0,0.1,0.1l-0.1,0.1c-0.1,0-0.6-0.1-0.7-0.1c-0.2,0-0.2-0.1-0.2-0.3c0-0.5,0-0.8,0-1.2
					c0-0.3,0-0.5,0-0.7C83.3,46.5,83.3,46.4,83.3,46.2z M83.6,52.9l3.8-1.6c0.3-0.1,0.4-0.2,0.5-0.5c0-0.1,0-0.2,0-0.2
					c0-0.1,0-0.1,0.1-0.1c0,0,0.1,0.1,0.1,0.2c0,0.3,0,0.7,0,0.9s0,0.5,0,0.8c0,0.1,0,0.1-0.1,0.1c0,0-0.1,0-0.1-0.1s0-0.2,0-0.2
					l-0.1-0.1c-0.1,0-0.2,0.1-0.5,0.1l-2.8,1.1l0,0c0.6,0.3,2.7,1.1,3.1,1.2c0.1,0,0.2,0.1,0.2,0.1c0.1,0,0.1,0,0.1-0.1s0-0.2,0-0.2
					c0-0.1,0-0.1,0.1-0.1c0,0,0.1,0.1,0.1,0.2c0,0.3,0,0.6,0,0.7c0,0.1,0,0.4,0,0.6c0,0.1,0,0.1-0.1,0.1c0,0-0.1,0-0.1-0.1
					s0-0.2-0.1-0.3s-0.2-0.2-0.6-0.3c-0.6-0.2-0.9-0.4-1.7-0.8c-0.9-0.4-1.6-0.7-1.9-0.8c-0.4-0.2-0.5-0.2-0.5-0.3
					C83.2,53.1,83.3,53,83.6,52.9z M88,57.6C88,57.7,88,57.7,88,57.6c-0.2,0.1-0.2,0.1-0.2,0s0-0.1,0-0.2c0-0.2-0.1-0.2-0.3-0.2
					c-0.2,0-0.4,0-1.3,0h-1.1c-0.6,0-1.1,0-1.4,0c-0.2,0-0.3,0.1-0.3,0.2c0,0.1,0,0.2,0,0.3s0,0.1-0.1,0.1c0,0-0.1,0-0.1-0.1
					c0-0.4,0-0.8,0-1c0-0.1,0-0.6,0-0.8c0-0.1,0-0.1,0.1-0.1c0,0,0.1,0,0.1,0.1s0,0.2,0,0.2c0,0.1,0.1,0.2,0.3,0.2
					c0.3,0,0.8,0,1.4,0h1.1c0.9,0,1.1,0,1.3,0c0.2,0,0.3-0.1,0.3-0.2c0-0.1,0-0.1,0-0.2c0-0.1,0-0.1,0.1-0.1l0.1,0.1
					c0,0.2,0,0.7,0,0.8C88,57,88,57.4,88,57.6z M88,60.5c0,0.4,0,0.9-0.3,1.2c-0.1,0.2-0.4,0.4-0.9,0.4s-0.9-0.3-1.4-0.9
					c-0.7,0.6-1.3,1-1.7,1.4c-0.4,0.3-0.4,0.6-0.4,0.7c0,0.1,0,0.1,0,0.1c0,0.1,0,0.1-0.1,0.1s-0.1,0-0.1-0.1v-0.6
					c0-0.3,0-0.5,0.1-0.7c0.1-0.3,0.4-0.5,0.9-0.9c0.3-0.2,0.8-0.5,0.9-0.6v-0.1v-0.6c0,0,0,0-0.1,0h-0.1c-0.6,0-1.1,0-1.3,0
					c-0.2,0-0.3,0-0.3,0.2c0,0.1,0,0.2,0,0.3c0,0,0,0.1-0.1,0.1c0,0-0.1,0-0.1-0.1c0-0.4,0-0.9,0-1s0-0.5,0-0.8c0-0.1,0-0.1,0.1-0.1
					c0,0,0.1,0,0.1,0.1s0,0.2,0,0.2c0,0.1,0.1,0.2,0.3,0.2c0.3,0,0.8,0,1.3,0h1.1c0.9,0,1.1,0,1.3,0c0.2,0,0.3-0.1,0.3-0.3
					c0-0.1,0-0.2,0-0.2c0-0.1,0-0.1,0.1-0.1l0.1,0.1c0,0.3,0,0.7,0,0.9C88,59.8,88,60.4,88,60.5z M83.6,68.5
					c0.3-0.3,0.8-0.6,1.7-0.6h0.9c0.9,0,1.1,0,1.3,0c0.2,0,0.3-0.1,0.3-0.3c0-0.1,0-0.2,0-0.2c0-0.1,0-0.1,0.1-0.1
					c0,0,0.1,0,0.1,0.1c0,0.3,0,0.8,0,0.9c0,0.2,0,0.6,0,0.8c0,0.1,0,0.1-0.1,0.1c0,0-0.1,0-0.1-0.1s0-0.1,0-0.2
					c0-0.2-0.1-0.2-0.3-0.2c-0.2,0-0.4,0-1.3,0h-0.9c-0.9,0-1.3,0.2-1.5,0.5s-0.3,0.6-0.3,0.8c0,0.3,0.1,0.6,0.3,0.8
					c0.3,0.4,0.9,0.4,1.5,0.4h0.8c0.9,0,1.1,0,1.3,0c0.2,0,0.3-0.1,0.3-0.3c0-0.1,0-0.2,0-0.2c0-0.1,0-0.1,0.1-0.1
					c0,0,0.1,0,0.1,0.1c0,0.3,0,0.7,0,0.7c0,0.1,0,0.5,0,0.7c0,0.1,0,0.1-0.1,0.1c0,0-0.1,0-0.1-0.1s0-0.1,0-0.2
					c0-0.2-0.1-0.2-0.3-0.2c-0.2,0-0.4,0-1.3,0h-0.7c-0.7,0-1.4-0.1-1.9-0.6c-0.4-0.4-0.4-0.9-0.4-1.3
					C83.2,69.6,83.2,68.9,83.6,68.5z M88,75.7C88,75.7,87.9,75.8,88,75.7c-0.2,0.1-0.3,0.1-0.8,0.1c-0.1,0-0.2,0-0.2-0.1
					c0,0,0-0.1,0.1-0.1s0.3,0,0.4-0.2c0.1-0.1,0.3-0.3,0.3-0.7c0-0.4-0.2-0.9-0.7-0.9c-0.3,0-0.5,0.1-0.8,0.7l-0.1,0.3
					c-0.5,0.8-0.9,1.1-1.5,1.1c-0.5,0-0.8-0.2-1.2-0.6c-0.2-0.3-0.3-0.7-0.3-1c0-0.4,0-0.7,0.2-1c0-0.1,0.1-0.1,0.2-0.1
					c0.3,0,0.7,0,0.8,0c0.1,0,0.2,0,0.2,0.1s-0.1,0.1-0.1,0.1c-0.1,0-0.2,0-0.3,0.1c-0.5,0.1-0.6,0.6-0.6,1c0,0.5,0.4,0.9,0.8,0.9
					c0.3,0,0.5-0.1,0.9-0.6l0.2-0.4c0.4-0.7,0.9-1,1.4-1c0.8,0,1.3,0.7,1.3,1.6C88.1,75.2,88,75.5,88,75.7z M88,63.3
					c0,0.2,0,0.4,0,0.6v2.5c0,0.2,0,0.3,0,0.4s0,0.1,0,0.2c0,0,0,0-0.1,0s-0.6,0-0.8,0C87,67,87,67,87,66.9c0,0,0-0.1,0.1-0.1h0.1
					c0.2,0,0.4-0.2,0.4-0.7v-0.8h-2.5c-0.6,0-1.1,0-1.3,0c-0.2,0-0.3,0.1-0.3,0.2s0,0.2,0,0.3c0,0.1,0,0.1-0.1,0.1
					c0,0-0.1,0-0.1-0.1c0-0.4,0-0.8,0-1c0-0.1,0-0.6,0-0.8c0-0.1,0-0.1,0.1-0.1c0,0,0.1,0,0.1,0.1c0,0.1,0,0.2,0,0.2
					c0,0.1,0.1,0.2,0.3,0.2c0.3,0,0.8,0,1.3,0h2.5v-0.9c0-0.4-0.1-0.5-0.2-0.6s-0.2-0.1-0.2-0.1c-0.1,0-0.1,0-0.1-0.1
					c0,0,0-0.1,0.1-0.1s0.7,0.1,0.8,0.1c0.1,0,0.1,0,0.1,0.1C88.1,63.1,88,63.1,88,63.3z M85.7,40.1c-1.4,0-2.6-1-2.6-2.6
					c0-1.8,1.3-2.6,2.4-2.6s2.4,0.7,2.4,2.6C88.1,39.2,87.2,40.1,85.7,40.1z M87.9,28.1c-0.3,0.1-2.9,1.2-3.8,1.6
					c-0.6,0.2-0.6,0.4-0.7,0.5c0,0.1,0,0.2,0,0.2c0,0.1,0,0.1-0.1,0.1s-0.1,0-0.1-0.3c0-0.2,0-0.7,0-1.2c0-0.1,0-0.2,0.1-0.2
					c0,0,0.1,0,0.1,0.1l0.1,0.1l1.3-0.5c0,0,0,0,0-0.1V27c0,0,0,0,0-0.1L84,26.6c-0.2-0.1-0.3-0.1-0.4-0.1s-0.2,0.1-0.2,0.2v0.1
					c0,0.1,0,0.1-0.1,0.1s-0.1,0-0.1-0.1c0-0.2,0-0.5,0-0.7c0-0.1,0-0.4,0-0.7c0-0.1,0-0.1,0-0.2c0-0.4,0-0.8,0-1.1
					c0-0.3,0-0.6,0-0.8c0-0.1,0-0.2,0-0.4c0-0.1,0-0.3,0-0.4s0-0.1,0.1-0.1c0,0,0.1,0,0.1,0.1s0,0.2,0,0.2c0,0.1,0.1,0.2,0.3,0.2
					c0.3,0,0.8,0,1.3,0h1.1c0.9,0,1.1,0,1.3,0c0.2,0,0.3-0.1,0.3-0.3c0,0,0-0.1,0-0.2s0-0.1,0.1-0.1c0,0,0.1,0,0.1,0.1
					c0,0.3,0,0.7,0,0.9c0,0.2,0,0.7,0,0.9c0,0.1,0,0.1-0.1,0.1c0,0-0.1,0-0.1-0.1s0-0.2,0-0.2c0-0.2-0.1-0.2-0.3-0.2
					c-0.2,0-0.4,0-1.3,0H85c-0.8,0-1.2,0-1.3,0.1c-0.1,0.1-0.1,0.3-0.1,0.8c0,0.3,0,0.6,0.2,0.7c0.1,0.1,0.3,0.1,0.4,0.2
					c0.1,0,0.1,0,0.1,0.1l-0.1,0.1c-0.1,0-0.5,0-0.7-0.1l0,0c0.1,0.3,0.2,0.4,0.5,0.5l3.9,1.6c0.2,0.1,0.3,0.1,0.3,0.2
					C88.1,28,88.1,28,87.9,28.1z"/>
			</g>
			<path class="st0" d="M66.5,78.7c0.7-0.2,1.3-1,0.7-2.5L57.1,53.9l-2.3-5.2L44.5,24.3c-0.6-1.4-1.1-1.4-1.7,0l-9.7,24.8
				c-0.2,0.5,0,0.6,0.3,0.6h18l1.5,3.3H32.2c-0.6,0-0.9,0.3-1.1,0.7L24.5,70c-1,2.3-1.5,4.5-1.5,6.2c0,1.8,2.3,2.7,4.2,2.7h1.1
				c0.7,0,1,0.2,1.1,0.4h36.5C65.8,79,66.1,78.8,66.5,78.7z"/>
		</g>
	</g>
	<g>
		<path class="st0" d="M272.5,65.5v8.1c0,3.1,1.4,4.3,3.2,4.3c2,0,3.3-1.3,3.3-4.3v-8.1h1.8v7.9c0,4.2-2.2,5.9-5.2,5.9
			c-2.8,0-4.9-1.6-4.9-5.8v-8H272.5z"/>
		<path class="st0" d="M285.7,79.1V65.5h1.9l4.4,6.9c1,1.6,1.8,3,2.4,4.4l0,0c-0.2-1.8-0.2-3.5-0.2-5.6v-5.7h1.7v13.6h-1.8l-4.3-6.9
			c-0.9-1.5-1.9-3.1-2.5-4.5h-0.1c0.1,1.7,0.1,3.4,0.1,5.6v5.8C287.3,79.1,285.7,79.1,285.7,79.1z"/>
		<path class="st0" d="M307.8,72.7h-5.3v4.9h5.9v1.5h-7.7V65.5h7.4V67h-5.6v4.3h5.3L307.8,72.7L307.8,72.7z"/>
		<path class="st0" d="M314.7,74.8l-1.4,4.3h-1.8l4.6-13.6h2.1l4.6,13.6H321l-1.5-4.3H314.7z M319.2,73.4l-1.3-3.9
			c-0.3-0.9-0.5-1.7-0.7-2.5l0,0c-0.2,0.8-0.4,1.6-0.7,2.5l-1.3,3.9H319.2z"/>
		<path class="st0" d="M327.8,67h-4.1v-1.5h10.1V67h-4.2v12.1h-1.8V67z"/>
		<path class="st0" d="M337,65.5h1.8v12.1h5.8v1.5H337V65.5z"/>
		<path class="st0" d="M350.6,74.8l-1.4,4.3h-1.8l4.6-13.6h2.1l4.6,13.6h-1.9l-1.5-4.3H350.6z M355.1,73.4l-1.3-3.9
			c-0.3-0.9-0.5-1.7-0.7-2.5l0,0c-0.2,0.8-0.4,1.6-0.7,2.5l-1.3,3.9H355.1z"/>
		<path class="st0" d="M362.6,79.1V65.5h1.9l4.4,6.9c1,1.6,1.8,3,2.4,4.4l0,0c-0.2-1.8-0.2-3.5-0.2-5.6v-5.7h1.7v13.6H371l-4.3-6.9
			c-0.9-1.5-1.9-3.1-2.5-4.5h-0.1c0.1,1.7,0.1,3.4,0.1,5.6v5.8C364.2,79.1,362.6,79.1,362.6,79.1z"/>
		<path class="st0" d="M380.3,67h-4.1v-1.5h10.1V67h-4.2v12.1h-1.8V67z"/>
		<path class="st0" d="M391.3,65.5v13.6h-1.8V65.5H391.3z"/>
		<path class="st0" d="M405.7,78.6c-0.6,0.3-1.9,0.6-3.6,0.6c-3.8,0-6.7-2.4-6.7-6.9c0-4.3,2.9-7.2,7.1-7.2c1.7,0,2.8,0.4,3.2,0.6
			l-0.4,1.4c-0.7-0.3-1.6-0.6-2.7-0.6c-3.2,0-5.3,2-5.3,5.6c0,3.3,1.9,5.5,5.2,5.5c1.1,0,2.2-0.2,2.9-0.6L405.7,78.6z"/>
		<path class="st0" d="M421,72.1c0,4.7-2.8,7.2-6.3,7.2c-3.6,0-6.1-2.8-6.1-6.9c0-4.3,2.7-7.2,6.3-7.2C418.6,65.2,421,68.1,421,72.1
			z M410.4,72.4c0,2.9,1.6,5.5,4.3,5.5c2.8,0,4.4-2.6,4.4-5.7c0-2.7-1.4-5.5-4.3-5.5C411.8,66.7,410.4,69.4,410.4,72.4z"/>
	</g>
	<line class="st2" x1="251.8" y1="6.4" x2="251.8" y2="84.8"/>
</g>
</svg>
