<svg    style="  fill: rgb(248,135,103);"          id="Capa_1" enable-background="new 0 0 512 512" height="512" viewBox="0 0 512 512" width="512" xmlns="http://www.w3.org/2000/svg"><path d="m468.413 190.303c-1.598 0-3.174.092-4.728.261v-31.252c0-30.162-24.539-54.701-54.702-54.701h-47.43c-4.15 0-7.515 3.364-7.515 7.515s3.364 7.515 7.515 7.515h47.43c21.876 0 39.673 17.797 39.673 39.672v35.745c-14.128 7.218-23.829 21.908-23.829 38.832v27.56c-6.284-4.728-14.092-7.535-22.544-7.535h-292.566c-8.452 0-16.26 2.807-22.544 7.535v-27.56c0-16.924-9.701-31.614-23.829-38.832v-35.745c0-21.875 17.797-39.672 39.673-39.672h228.478c4.15 0 7.515-3.365 7.515-7.515s-3.365-7.515-7.515-7.515h-228.478c-30.163 0-54.702 24.539-54.702 54.701v31.252c-1.554-.168-3.13-.261-4.728-.261-24.034 0-43.587 19.553-43.587 43.587 0 17.295 10.42 32.947 25.937 39.849v103.032c0 16.883 13.735 30.618 30.618 30.618s30.618-13.735 30.618-30.618v-14.388h238.88c4.15 0 7.515-3.365 7.515-7.515s-3.365-7.515-7.515-7.515h-238.88v-21.478h60.207c4.15 0 7.515-3.364 7.515-7.515 0-4.15-3.365-7.515-7.515-7.515h-60.207v-19.359c0-12.431 10.113-22.544 22.544-22.544h292.566c12.431 0 22.544 10.113 22.544 22.544v19.359h-247.388c-4.15 0-7.515 3.365-7.515 7.515s3.364 7.515 7.515 7.515h247.388v21.478h-68.715c-4.15 0-7.515 3.365-7.515 7.515s3.364 7.515 7.515 7.515h68.715v14.388c0 16.883 13.735 30.618 30.618 30.618s30.618-13.735 30.618-30.618v-103.032c15.517-6.902 25.937-22.554 25.937-39.849 0-24.034-19.553-43.587-43.587-43.587zm-396.269 186.468c0 8.595-6.993 15.589-15.588 15.589s-15.589-6.993-15.589-15.589v-108.263c0-3.338-2.202-6.276-5.407-7.213-12.088-3.534-20.531-14.803-20.531-27.406 0-15.747 12.811-28.557 28.557-28.557s28.557 12.811 28.557 28.557v142.882zm404.296-115.475c-3.204.936-5.406 3.875-5.406 7.213v108.263c0 8.595-6.993 15.589-15.589 15.589s-15.589-6.993-15.589-15.589v-142.882c0-15.747 12.811-28.557 28.557-28.557 15.747 0 28.557 12.811 28.557 28.557.001 12.602-8.442 23.872-20.53 27.406z"/></svg>
