              <svg  style="  fill: rgb(248,135,103);"  xmlns="http://www.w3.org/2000/svg"
                viewBox="0 0 512.001 512.001">
                <path
                  d="M399.28 277.601c-.171-5.904-2.792-11.536-7.191-15.454-37.419-33.312-85.748-51.658-136.088-51.658-50.34 0-98.669 18.346-136.088 51.658-4.398 3.916-7.019 9.548-7.19 15.451-.173 5.94 2.137 11.756 6.339 15.957l41.123 41.123c8.001 7.999 20.553 8.545 29.2 1.267 18.55-15.62 42.209-24.221 66.616-24.22 24.409 0 48.067 8.603 66.617 24.22 4.067 3.426 8.997 5.119 13.914 5.119 5.534-.001 11.049-2.147 15.287-6.384l41.122-41.123c4.2-4.201 6.511-10.016 6.339-15.956zm-62.724 41.797l-.004-.002c-22.445-18.898-51.052-29.305-80.551-29.305-29.498 0-58.107 10.409-80.519 29.29l-41.183-41.075c33.453-29.78 76.674-46.181 121.703-46.181s88.25 16.401 121.642 46.133l-41.088 41.14zM288.191 383.008c-8.598-8.598-20.03-13.334-32.189-13.334s-23.592 4.736-32.19 13.333c-17.748 17.751-17.748 46.63.001 64.379 8.874 8.874 20.533 13.311 32.189 13.311s23.314-4.436 32.188-13.311c8.598-8.597 13.334-20.03 13.334-32.189 0-12.16-4.736-23.592-13.333-32.189zm-15.299 49.082c-9.312 9.314-24.468 9.314-33.782 0-9.315-9.315-9.315-24.47 0-33.784 4.512-4.513 10.511-6.997 16.892-6.997 6.38 0 12.379 2.485 16.891 6.997 0 .001 0 .001.001.001 4.512 4.512 6.996 10.511 6.996 16.892 0 6.38-2.485 12.38-6.998 16.891z" />
                <path
                  d="M505.147 149.718C365.44 18.499 146.563 18.498 6.854 149.717c-4.326 4.062-6.758 9.561-6.852 15.486-.092 5.902 2.156 11.451 6.328 15.623l41.041 41.041c8.26 8.26 21.425 8.519 29.971.592 48.605-45.098 112.053-69.935 178.659-69.935 66.604 0 130.053 24.837 178.658 69.935 4.16 3.862 9.416 5.781 14.668 5.781 5.534 0 11.065-2.133 15.304-6.372l41.041-41.041c4.173-4.172 6.42-9.721 6.328-15.623-.095-5.924-2.527-11.424-6.853-15.486zm-55.772 56.883c-52.619-48.824-121.293-75.711-193.373-75.711-72.081 0-140.755 26.888-193.332 75.679l-41.005-41.082c131.406-123.42 337.27-123.416 468.673.001l.036.041-40.999 41.072z" />
              </svg>